{
	"asset":{
		"generator":"Khronos glTF Blender I/O v4.0.44",
		"version":"2.0"
	},
	"extensionsUsed":[
		"KHR_materials_clearcoat"
	],
	"scene":0,
	"scenes":[
		{
			"name":"Scene",
			"nodes":[
				0
			]
		}
	],
	"nodes":[
		{
			"mesh":0,
			"name":"Baked Animations Intergalactic_Spaceships_Version_2",
			"rotation":[
				0.70710688829422,
				0,
				0,
				0.7071066498756409
			]
		}
	],
	"animations":[
		{
			"channels":[
				{
					"sampler":0,
					"target":{
						"node":0,
						"path":"translation"
					}
				},
				{
					"sampler":1,
					"target":{
						"node":0,
						"path":"rotation"
					}
				},
				{
					"sampler":2,
					"target":{
						"node":0,
						"path":"scale"
					}
				}
			],
			"name":"RetopoGroup2Action.002",
			"samplers":[
				{
					"input":5,
					"interpolation":"LINEAR",
					"output":6
				},
				{
					"input":5,
					"interpolation":"LINEAR",
					"output":7
				},
				{
					"input":8,
					"interpolation":"STEP",
					"output":9
				}
			]
		}
	],
	"materials":[
		{
			"doubleSided":true,
			"emissiveFactor":[
				1,
				1,
				1
			],
			"extensions":{
				"KHR_materials_clearcoat":{
					"clearcoatFactor":0.25,
					"clearcoatRoughnessFactor":0.6272727251052856
				}
			},
			"name":"Material.001",
			"pbrMetallicRoughness":{}
		}
	],
	"meshes":[
		{
			"name":"Baked Animations Intergalactic_Spaceships_Version_2",
			"primitives":[
				{
					"attributes":{
						"COLOR_0":0,
						"POSITION":1,
						"NORMAL":2,
						"TEXCOORD_0":3
					},
					"indices":4,
					"material":0
				}
			]
		}
	],
	"accessors":[
		{
			"bufferView":0,
			"componentType":5123,
			"count":16927,
			"normalized":true,
			"type":"VEC4"
		},
		{
			"bufferView":1,
			"componentType":5126,
			"count":16927,
			"max":[
				2.9886114597320557,
				2.772717237472534,
				1.354321002960205
			],
			"min":[
				-2.989384889602661,
				-5.724405765533447,
				-1.7437609434127808
			],
			"type":"VEC3"
		},
		{
			"bufferView":2,
			"componentType":5126,
			"count":16927,
			"type":"VEC3"
		},
		{
			"bufferView":3,
			"componentType":5126,
			"count":16927,
			"type":"VEC2"
		},
		{
			"bufferView":4,
			"componentType":5123,
			"count":82680,
			"type":"SCALAR"
		},
		{
			"bufferView":5,
			"componentType":5126,
			"count":821,
			"max":[
				32.8
			],
			"min":[
				0
			],
			"type":"SCALAR"
		},
		{
			"bufferView":6,
			"componentType":5126,
			"count":821,
			"type":"VEC3"
		},
		{
			"bufferView":7,
			"componentType":5126,
			"count":821,
			"type":"VEC4"
		},
		{
			"bufferView":8,
			"componentType":5126,
			"count":2,
			"max":[
				32.8
			],
			"min":[
				0
			],
			"type":"SCALAR"
		},
		{
			"bufferView":9,
			"componentType":5126,
			"count":2,
			"type":"VEC3"
		}
	],
	"bufferViews":[
		{
			"buffer":0,
			"byteLength":135416,
			"byteOffset":0,
			"target":34962
		},
		{
			"buffer":0,
			"byteLength":203124,
			"byteOffset":135416,
			"target":34962
		},
		{
			"buffer":0,
			"byteLength":203124,
			"byteOffset":338540,
			"target":34962
		},
		{
			"buffer":0,
			"byteLength":135416,
			"byteOffset":541664,
			"target":34962
		},
		{
			"buffer":0,
			"byteLength":165360,
			"byteOffset":677080,
			"target":34963
		},
		{
			"buffer":0,
			"byteLength":3284,
			"byteOffset":842440
		},
		{
			"buffer":0,
			"byteLength":9852,
			"byteOffset":845724
		},
		{
			"buffer":0,
			"byteLength":13136,
			"byteOffset":855576
		},
		{
			"buffer":0,
			"byteLength":8,
			"byteOffset":868712
		},
		{
			"buffer":0,
			"byteLength":24,
			"byteOffset":868720
		}
	],
	"buffers":[
		{
			"byteLength":868744,
			"uri":"Blender-2.92-Baked%20Animations%20Intergalactic_Spaceships_Version_2.bin"
		}
	]
}
